<mxfile host="app.diagrams.net" modified="2024-05-10T10:13:31.906Z" agent="Mozilla/5.0 (Windows NT 10.0; Win64; x64) AppleWebKit/537.36 (KHTML, like Gecko) Chrome/124.0.0.0 Safari/537.36 Edg/124.0.0.0" etag="_71syyTTNM0SSB9z6ve9" version="24.3.1" type="github">
  <diagram name="Seite-1" id="3vB9qWkkLMuJ13SJmIiz">
    <mxGraphModel dx="847" dy="514" grid="1" gridSize="10" guides="1" tooltips="1" connect="1" arrows="1" fold="1" page="1" pageScale="1" pageWidth="827" pageHeight="1169" math="0" shadow="0">
      <root>
        <mxCell id="0" />
        <mxCell id="1" parent="0" />
        <mxCell id="CV1pPfTYgQ_YOKvxJY6K-1" value="Start" style="ellipse;whiteSpace=wrap;html=1;" vertex="1" parent="1">
          <mxGeometry x="390" y="60" width="140" height="50" as="geometry" />
        </mxCell>
        <mxCell id="CV1pPfTYgQ_YOKvxJY6K-2" value="" style="endArrow=classic;html=1;rounded=0;exitX=0.423;exitY=1.079;exitDx=0;exitDy=0;exitPerimeter=0;entryX=0.5;entryY=0;entryDx=0;entryDy=0;" edge="1" parent="1" source="CV1pPfTYgQ_YOKvxJY6K-1" target="CV1pPfTYgQ_YOKvxJY6K-4">
          <mxGeometry width="50" height="50" relative="1" as="geometry">
            <mxPoint x="390" y="470" as="sourcePoint" />
            <mxPoint x="439" y="140" as="targetPoint" />
          </mxGeometry>
        </mxCell>
        <mxCell id="CV1pPfTYgQ_YOKvxJY6K-4" value="a,b,c" style="shape=parallelogram;perimeter=parallelogramPerimeter;whiteSpace=wrap;html=1;fixedSize=1;" vertex="1" parent="1">
          <mxGeometry x="370" y="140" width="150" height="50" as="geometry" />
        </mxCell>
        <mxCell id="CV1pPfTYgQ_YOKvxJY6K-5" value="Sum = a + b + c" style="rounded=0;whiteSpace=wrap;html=1;" vertex="1" parent="1">
          <mxGeometry x="370" y="220" width="150" height="60" as="geometry" />
        </mxCell>
        <mxCell id="CV1pPfTYgQ_YOKvxJY6K-18" style="edgeStyle=orthogonalEdgeStyle;rounded=0;orthogonalLoop=1;jettySize=auto;html=1;" edge="1" parent="1" source="CV1pPfTYgQ_YOKvxJY6K-6" target="CV1pPfTYgQ_YOKvxJY6K-7">
          <mxGeometry relative="1" as="geometry" />
        </mxCell>
        <mxCell id="CV1pPfTYgQ_YOKvxJY6K-6" value="Sum&lt;div&gt;Output&lt;/div&gt;" style="shape=parallelogram;perimeter=parallelogramPerimeter;whiteSpace=wrap;html=1;fixedSize=1;" vertex="1" parent="1">
          <mxGeometry x="362" y="310" width="158" height="40" as="geometry" />
        </mxCell>
        <mxCell id="CV1pPfTYgQ_YOKvxJY6K-7" value="End" style="ellipse;whiteSpace=wrap;html=1;" vertex="1" parent="1">
          <mxGeometry x="359.5" y="390" width="163" height="60" as="geometry" />
        </mxCell>
        <mxCell id="CV1pPfTYgQ_YOKvxJY6K-12" value="" style="endArrow=classic;html=1;rounded=0;exitX=0.5;exitY=1;exitDx=0;exitDy=0;entryX=0.5;entryY=0;entryDx=0;entryDy=0;" edge="1" parent="1" source="CV1pPfTYgQ_YOKvxJY6K-4" target="CV1pPfTYgQ_YOKvxJY6K-5">
          <mxGeometry width="50" height="50" relative="1" as="geometry">
            <mxPoint x="410" y="290" as="sourcePoint" />
            <mxPoint x="460" y="240" as="targetPoint" />
          </mxGeometry>
        </mxCell>
        <mxCell id="CV1pPfTYgQ_YOKvxJY6K-17" style="edgeStyle=orthogonalEdgeStyle;rounded=0;orthogonalLoop=1;jettySize=auto;html=1;exitX=0.5;exitY=1;exitDx=0;exitDy=0;entryX=0.546;entryY=-0.071;entryDx=0;entryDy=0;entryPerimeter=0;" edge="1" parent="1" source="CV1pPfTYgQ_YOKvxJY6K-5" target="CV1pPfTYgQ_YOKvxJY6K-6">
          <mxGeometry relative="1" as="geometry" />
        </mxCell>
      </root>
    </mxGraphModel>
  </diagram>
</mxfile>
